<?xml version="1.0" standalone="no"?>
<!DOCTYPE svg PUBLIC "-//W3C//DTD SVG 20010904//EN"
 "http://www.w3.org/TR/2001/REC-SVG-20010904/DTD/svg10.dtd">
<svg version="1.0" xmlns="http://www.w3.org/2000/svg"
 width="400.000000pt" height="400.000000pt" viewBox="0 0 400.000000 400.000000"
 preserveAspectRatio="xMidYMid meet">
<metadata>
Created by potrace 1.11, written by Peter Selinger 2001-2013
</metadata>
<g transform="translate(0.000000,400.000000) scale(0.100000,-0.100000)"
fill="#000000" stroke="none">
<path d="M2192 3333 c-177 -181 -321 -330 -322 -333 0 -3 58 -64 130 -135
l130 -129 28 27 28 27 199 -140 199 -141 2 -43 1 -44 -176 -176 -176 -176
-295 295 -294 294 22 24 c50 53 48 56 -286 390 -169 169 -314 307 -323 307
-18 0 -49 -31 -49 -49 0 -7 23 -37 52 -67 l52 -55 -367 -367 -367 -367 -54 54
c-51 51 -57 54 -81 43 -18 -8 -25 -19 -25 -39 0 -23 51 -79 303 -331 327 -327
326 -326 387 -282 l27 19 96 -65 95 -66 82 17 c45 9 83 15 84 13 2 -2 35 -58
74 -124 39 -67 78 -124 86 -127 8 -3 41 -2 73 3 85 14 86 14 115 -42 l28 -51
-358 -361 c-396 -400 -408 -415 -406 -521 2 -74 22 -123 77 -182 56 -62 125
-93 202 -93 109 1 116 6 514 411 283 288 369 369 384 365 10 -2 56 2 100 10
64 11 83 11 89 1 5 -6 33 -59 63 -118 29 -58 60 -111 69 -118 13 -11 31 -10
103 3 47 9 87 15 89 13 1 -1 27 -56 57 -122 30 -66 62 -124 70 -129 10 -7 47
-4 112 8 53 10 97 17 99 15 2 -2 34 -60 71 -129 63 -119 94 -160 118 -160 6 0
93 82 194 182 141 141 183 188 183 208 0 20 -91 116 -440 465 l-439 439 170
172 171 171 86 6 c48 3 108 13 133 22 l47 16 203 -150 c112 -83 211 -151 219
-151 8 0 39 19 68 43 46 36 53 46 49 72 -2 19 -57 106 -144 230 l-141 200 14
55 c40 154 -18 335 -144 450 -68 63 -143 99 -236 113 l-75 12 -145 205 -145
205 19 20 c11 12 20 26 20 31 0 16 -244 254 -261 254 -8 0 -160 -147 -337
-327z m662 -287 l145 -203 78 -5 c135 -8 242 -82 301 -208 34 -72 41 -183 18
-265 -10 -31 -15 -63 -13 -69 3 -7 66 -99 141 -206 127 -180 145 -210 130
-210 -3 0 -98 68 -212 150 -143 105 -210 149 -221 144 -124 -55 -246 -58 -344
-11 -124 61 -188 162 -195 309 l-4 88 -195 137 -194 137 208 208 c114 114 209
208 210 208 1 0 68 -92 147 -204z m-1466 -109 l202 -202 -368 -368 -367 -367
-205 205 -205 205 365 365 c201 201 367 365 370 365 3 0 96 -91 208 -203z
m877 -1029 c374 -376 779 -783 900 -905 l219 -223 -124 -128 c-69 -71 -128
-130 -132 -131 -3 0 -8 5 -10 11 -2 7 -30 64 -63 126 -46 86 -66 114 -84 119
-14 3 -63 -1 -110 -10 -47 -9 -86 -15 -87 -14 -2 1 -28 56 -58 122 -30 66 -62
124 -70 130 -13 8 -143 -7 -180 -21 -6 -2 -40 52 -74 122 -35 69 -71 128 -79
131 -9 3 -53 -1 -99 -9 -46 -8 -84 -11 -84 -7 0 5 -13 27 -28 51 -16 24 -46
75 -67 115 -22 40 -45 75 -53 78 -9 3 -51 0 -95 -7 -50 -7 -82 -8 -84 -3 -2 6
-34 62 -71 125 l-68 115 -44 0 c-25 0 -63 -3 -85 -6 l-41 -7 -64 112 c-36 61
-75 121 -86 133 l-21 21 -87 -19 -87 -19 -72 49 -73 49 286 290 c157 160 287
291 290 291 3 1 311 -306 685 -681z m365 365 c16 -46 129 -160 185 -188 22
-11 42 -21 45 -23 2 -1 -65 -72 -150 -157 l-155 -155 -125 125 -125 124 149
156 c82 85 152 155 155 155 4 0 13 -17 21 -37z m-779 -917 c96 12 87 17 138
-82 l34 -66 -379 -379 c-404 -404 -410 -409 -489 -395 -69 13 -138 83 -151
152 -15 83 -17 81 358 465 l351 359 27 -32 27 -32 84 10z"/>
</g>
</svg>
